<?xml version="1.0" encoding="UTF-8"?>
<svg version="1.1" xmlns="http://www.w3.org/2000/svg" width="512" height="512">
<path d="M0 0 C4.96879352 1.9803399 9.53548975 4.68953407 14.1652832 7.34985352 C15.25591064 7.96868408 16.34653809 8.58751465 17.47021484 9.22509766 C26.85997991 14.56875095 36.19276723 20.01096419 45.51293945 25.47485352 C51.81848739 29.16948662 58.14572757 32.82588033 64.4777832 36.47485352 C65.55793701 37.09739014 66.63809082 37.71992676 67.75097656 38.36132812 C69.94074654 39.62312178 72.13060675 40.88475885 74.32055664 42.14624023 C80.83149577 45.89763376 87.33941514 49.65426346 93.84790039 53.40991211 C99.28863657 56.54917597 104.73009797 59.68716848 110.1730957 62.82250977 C122.06070178 69.67208144 133.93319488 76.5462731 145.77709961 83.47119141 C150.70498555 86.35186529 155.64043046 89.216431 160.6027832 92.03735352 C160.73765916 94.80980366 160.83679127 97.5757244 160.9152832 100.34985352 C160.95717773 101.13553711 160.99907227 101.9212207 161.04223633 102.73071289 C161.05834961 103.48803711 161.07446289 104.24536133 161.09106445 105.02563477 C161.11724854 105.72213135 161.14343262 106.41862793 161.17041016 107.13623047 C160.98309326 107.76360107 160.79577637 108.39097168 160.6027832 109.03735352 C159.78140869 109.45782959 158.96003418 109.87830566 158.11376953 110.31152344 C155.22005731 111.86645494 155.22005731 111.86645494 154.95581055 115.45141602 C154.92283977 116.85468613 154.91895866 118.25883524 154.9387207 119.66235352 C154.93393707 120.40565918 154.92915344 121.14896484 154.92422485 121.91479492 C154.92082523 123.48496621 154.9300325 125.05520821 154.95092773 126.62524414 C154.97769958 129.02984292 154.95118976 131.42977504 154.91918945 133.83422852 C154.92249355 135.36028049 154.9288998 136.88632956 154.9387207 138.41235352 C154.92353897 139.49057373 154.92353897 139.49057373 154.90805054 140.59057617 C154.90631853 142.86931476 154.90631853 142.86931476 155.6027832 146.03735352 C158.04580508 147.7957539 158.04580508 147.7957539 160.6027832 149.03735352 C161.17041016 150.93847656 161.17041016 150.93847656 161.09106445 153.04907227 C161.07495117 153.80639648 161.05883789 154.5637207 161.04223633 155.34399414 C161.0003418 156.12967773 160.95844727 156.91536133 160.9152832 157.72485352 C160.89272461 158.52213867 160.87016602 159.31942383 160.84692383 160.14086914 C160.78805264 162.10716685 160.69837075 164.07249842 160.6027832 166.03735352 C157.96225448 167.56073547 155.32171856 169.08410492 152.68115234 170.60742188 C150.34428198 171.95568621 148.00751461 173.30412738 145.67089844 174.65283203 C139.79555549 178.04376793 133.91865625 181.43189412 128.03637695 184.81079102 C115.93539911 191.76718597 103.89427259 198.81363878 91.90185547 205.95556641 C82.1494007 211.7479722 72.3140951 217.38849323 62.44897461 222.98632812 C61.33441895 223.61933838 60.21986328 224.25234863 59.0715332 224.90454102 C58.08604492 225.46254395 57.10055664 226.02054688 56.08520508 226.59545898 C54.21935227 227.6792244 52.39815305 228.84044028 50.6027832 230.03735352 C50.51213309 231.98197281 50.51213309 231.98197281 50.7277832 234.16235352 C50.4030403 237.42009183 50.0215415 238.6579794 47.56762695 240.88110352 C44.76901323 242.59869148 41.94114664 244.17995562 39.04125977 245.7175293 C34.96806458 247.92214415 30.9811948 250.27545096 26.97753906 252.60327148 C22.59722126 255.1476453 18.20556035 257.67148326 13.80151367 260.17456055 C11.60896174 261.45140158 9.4419195 262.77277877 7.29858398 264.13061523 C6.24525879 264.7894873 5.19193359 265.44835937 4.10668945 266.12719727 C3.16768799 266.73297607 2.22868652 267.33875488 1.26123047 267.96289062 C-1.3972168 269.03735352 -1.3972168 269.03735352 -3.92871094 268.28173828 C-4.74331787 267.87109131 -5.5579248 267.46044434 -6.3972168 267.03735352 C-9.53673827 266.03744694 -10.85184006 265.81733793 -13.93896484 267.06274414 C-14.83655518 267.60092773 -15.73414551 268.13911133 -16.65893555 268.69360352 C-17.68196777 269.2963208 -18.705 269.89903809 -19.7590332 270.52001953 C-20.85650879 271.18573975 -21.95398438 271.85145996 -23.0847168 272.53735352 C-24.24445246 273.22630438 -25.40511431 273.91369829 -26.56665039 274.59960938 C-28.98139439 276.02715213 -31.39200219 277.46133761 -33.80004883 278.90014648 C-39.33577058 282.19954755 -44.9326183 285.39292869 -50.5222168 288.59985352 C-58.86879718 293.41054283 -67.20170035 298.24423347 -75.5222168 303.09985352 C-76.4908667 303.66486572 -77.4595166 304.22987793 -78.45751953 304.81201172 C-83.66299797 307.85045273 -88.86278117 310.89830457 -94.05737305 313.95532227 C-95.69585205 314.91716431 -95.69585205 314.91716431 -97.36743164 315.8984375 C-99.46190383 317.12813331 -101.5547653 318.36057806 -103.64575195 319.59619141 C-105.05993408 320.42558228 -105.05993408 320.42558228 -106.50268555 321.27172852 C-107.32921631 321.75867188 -108.15574707 322.24561523 -109.00732422 322.74731445 C-111.460223 324.0713636 -113.72608372 325.22716735 -116.3972168 326.03735352 C-119.24105165 324.84647829 -121.59733799 323.62389719 -124.2097168 322.03735352 C-124.98959961 321.58384521 -125.76948242 321.13033691 -126.57299805 320.66308594 C-128.28288249 319.66604297 -129.98792837 318.66066802 -131.6887207 317.64819336 C-134.44990293 316.00601918 -137.22398901 314.38797666 -140.00268555 312.77563477 C-144.02704683 310.43874562 -148.04609431 308.09309888 -152.0612793 305.74047852 C-158.45003671 302.00100762 -164.85837756 298.29610317 -171.2722168 294.59985352 C-172.35180664 293.97763916 -173.43139648 293.3554248 -174.54370117 292.71435547 C-176.734042 291.45223835 -178.92447182 290.19027567 -181.11499023 288.9284668 C-186.54381622 285.80055203 -191.97040961 282.66876904 -197.3972168 279.53735352 C-199.56387262 278.28733473 -201.73053929 277.03733473 -203.8972168 275.78735352 C-210.3972168 272.03735352 -210.3972168 272.03735352 -216.8972168 268.28735352 C-217.97060303 267.66812012 -219.04398926 267.04888672 -220.14990234 266.41088867 C-222.30771482 265.1659407 -224.46543032 263.92082462 -226.62304688 262.67553711 C-232.17438272 259.47182701 -237.72758221 256.27141721 -243.28393555 253.07641602 C-248.72404288 249.94740459 -254.15913959 246.80989769 -259.58911133 243.66333008 C-261.34390528 242.6472522 -263.09989499 241.63323337 -264.85766602 240.62231445 C-283.53830805 229.86443099 -295.43118165 216.72218793 -302.2722168 195.78735352 C-304.42727193 186.92047004 -305.17422796 176.07639848 -301.7097168 167.47485352 C-298.31882361 161.96465209 -293.28559123 159.32170567 -287.7097168 156.3059082 C-283.93868463 154.237255 -280.23365364 152.05542515 -276.51538086 149.89379883 C-270.82093795 146.5881621 -265.10756955 143.31539943 -259.3972168 140.03735352 C-246.22282551 132.47282914 -233.07603951 124.8710224 -220.0222168 117.09985352 C-209.63677033 110.91836239 -199.17960877 104.87882267 -188.67602539 98.90136719 C-178.18056516 92.92710561 -167.74574153 86.85242467 -157.32397461 80.75073242 C-152.3921361 77.86354168 -147.45761499 74.98095425 -142.5222168 72.09985352 C-141.53487549 71.52332031 -140.54753418 70.94678711 -139.53027344 70.3527832 C-132.23081467 66.09511073 -124.91005326 61.87530243 -117.5847168 57.66235352 C-108.68824619 52.54449139 -99.84074966 47.35077844 -91.0222168 42.09985352 C-80.64596347 35.92369115 -70.20039102 29.88485778 -59.70239258 23.91894531 C-50.94070412 18.9357581 -42.22790152 13.87393052 -33.56054688 8.72827148 C-11.86921745 -4.04367653 -11.86921745 -4.04367653 0 0 Z " fill="#B189FC" transform="translate(327.397216796875,93.962646484375)"/>
<path d="M0 0 C3.59560635 1.83999863 7.0976237 3.82291114 10.59106445 5.84912109 C11.46134277 6.34782715 12.33162109 6.8465332 13.22827148 7.36035156 C19.3042905 10.84853452 25.34286263 14.39816674 31.3762207 17.95947266 C36.72079707 21.1009536 42.09346964 24.19338251 47.46606445 27.28662109 C48.53751709 27.90432373 49.60896973 28.52202637 50.71289062 29.15844727 C56.30188283 32.38027789 61.89316804 35.59810181 67.4855957 38.81396484 C72.91558064 41.93760965 78.34088253 45.06920124 83.76098633 48.20996094 C85.55014378 49.2462276 87.34037199 50.28064967 89.13208008 51.3125 C91.26931946 52.54541884 93.40006 53.78870233 95.52856445 55.03662109 C96.65133789 55.69017578 97.77411133 56.34373047 98.9309082 57.01708984 C101.50461514 58.78958405 103.0401943 60.15266045 104.59106445 62.84912109 C104.59106445 65.84912109 104.59106445 65.84912109 103.59106445 68.84912109 C99.02582227 73.16962864 93.31952945 76.04759387 87.90356445 79.16162109 C86.86441895 79.76393555 85.82527344 80.36625 84.75463867 80.98681641 C79.55204062 83.99937728 74.3396929 86.99481305 69.12437439 89.98527527 C66.73363075 91.35645674 64.34395892 92.7295017 61.95419312 94.10238647 C60.23619956 95.08757456 58.51581727 96.06859328 56.79541016 97.04956055 C55.7508667 97.64857178 54.70632324 98.24758301 53.63012695 98.86474609 C52.24108154 99.65800293 52.24108154 99.65800293 50.82397461 100.46728516 C48.49967558 101.78772425 48.49967558 101.78772425 46.59106445 103.84912109 C48.7883683 105.2246935 50.99596383 106.57375362 53.21606445 107.91162109 C53.83352539 108.3015625 54.45098633 108.69150391 55.0871582 109.09326172 C55.69946289 109.45742187 56.31176758 109.82158203 56.94262695 110.19677734 C57.77528076 110.70736694 57.77528076 110.70736694 58.62475586 111.22827148 C62.36877187 112.41042106 65.64049771 111.29585224 69.09448242 109.67260742 C69.91577637 109.18042725 70.73707031 108.68824707 71.58325195 108.18115234 C72.52297852 107.62492187 73.46270508 107.06869141 74.4309082 106.49560547 C75.93331055 105.5877832 75.93331055 105.5877832 77.46606445 104.66162109 C79.62998037 103.37621805 81.79404705 102.09106878 83.95825195 100.80615234 C85.06136719 100.14695801 86.16448242 99.48776367 87.30102539 98.80859375 C92.37656386 95.78571814 97.48419876 92.8186502 102.59106445 89.84912109 C104.5912418 88.68275851 106.5912413 87.51609087 108.59106445 86.34912109 C112.59106445 84.01578776 116.59106445 81.68245443 120.59106445 79.34912109 C121.58211182 78.77097656 122.57315918 78.19283203 123.59423828 77.59716797 C125.58354068 76.4368091 127.57296025 75.27665108 129.5625 74.11669922 C134.72717874 71.10520498 139.88944784 68.08968617 145.0480957 65.06787109 C146.1122168 64.44525391 147.17633789 63.82263672 148.27270508 63.18115234 C150.28649468 62.00277764 152.29957467 60.82318897 154.31176758 59.64208984 C160.67374657 55.92168622 167.1022125 52.34342099 173.59106445 48.84912109 C173.72600692 51.45500999 173.82508744 54.0539422 173.90356445 56.66162109 C173.94545898 57.39960938 173.98735352 58.13759766 174.03051758 58.89794922 C174.0793457 61.05615234 174.0793457 61.05615234 173.59106445 64.84912109 C172.76968994 65.26508545 171.94831543 65.6810498 171.10205078 66.10961914 C168.20979273 67.67870922 168.20979273 67.67870922 167.9440918 71.26318359 C167.91112102 72.6664537 167.90723991 74.07060282 167.92700195 75.47412109 C167.92221832 76.21742676 167.91743469 76.96073242 167.9125061 77.7265625 C167.90910648 79.29673379 167.91831375 80.86697579 167.93920898 82.43701172 C167.96598083 84.8416105 167.93947101 87.24154262 167.9074707 89.64599609 C167.9107748 91.17204807 167.91718105 92.69809714 167.92700195 94.22412109 C167.91182022 95.30234131 167.91182022 95.30234131 167.89633179 96.40234375 C167.89459978 98.68108234 167.89459978 98.68108234 168.59106445 101.84912109 C171.03408633 103.60752148 171.03408633 103.60752148 173.59106445 104.84912109 C174.15869141 106.75024414 174.15869141 106.75024414 174.0793457 108.86083984 C174.06323242 109.61816406 174.04711914 110.37548828 174.03051758 111.15576172 C173.98862305 111.94144531 173.94672852 112.72712891 173.90356445 113.53662109 C173.88100586 114.33390625 173.85844727 115.13119141 173.83520508 115.95263672 C173.77633389 117.91893443 173.686652 119.884266 173.59106445 121.84912109 C170.95053573 123.37250305 168.30999981 124.8958725 165.66943359 126.41918945 C163.33256323 127.76745379 160.99579586 129.11589496 158.65917969 130.46459961 C152.78383674 133.85553551 146.9069375 137.2436617 141.0246582 140.62255859 C128.92368036 147.57895354 116.88255384 154.62540636 104.89013672 161.76733398 C95.13768195 167.55973978 85.30237635 173.2002608 75.43725586 178.7980957 C74.3227002 179.43110596 73.20814453 180.06411621 72.05981445 180.71630859 C71.07432617 181.27431152 70.08883789 181.83231445 69.07348633 182.40722656 C67.20763352 183.49099197 65.3864343 184.65220786 63.59106445 185.84912109 C63.50041434 187.79374039 63.50041434 187.79374039 63.71606445 189.97412109 C63.39132155 193.23185941 63.00982275 194.46974697 60.5559082 196.69287109 C57.75729448 198.41045906 54.92942789 199.9917232 52.02954102 201.52929688 C47.95634583 203.73391173 43.96947605 206.08721854 39.96582031 208.41503906 C35.58550251 210.95941288 31.1938416 213.48325084 26.78979492 215.98632812 C24.59724299 217.26316916 22.43020075 218.58454635 20.28686523 219.94238281 C19.23354004 220.60125488 18.18021484 221.26012695 17.0949707 221.93896484 C16.15596924 222.54474365 15.21696777 223.15052246 14.24951172 223.7746582 C11.59106445 224.84912109 11.59106445 224.84912109 9.05957031 224.09350586 C8.24496338 223.68285889 7.43035645 223.27221191 6.59106445 222.84912109 C3.45154298 221.84921452 2.13644119 221.6291055 -0.95068359 222.87451172 C-1.84827393 223.41269531 -2.74586426 223.95087891 -3.6706543 224.50537109 C-4.69368652 225.10808838 -5.71671875 225.71080566 -6.77075195 226.33178711 C-7.86822754 226.99750732 -8.96570313 227.66322754 -10.09643555 228.34912109 C-11.25617121 229.03807195 -12.41683306 229.72546587 -13.57836914 230.41137695 C-15.99311314 231.83891971 -18.40372094 233.27310519 -20.81176758 234.71191406 C-26.34748933 238.01131513 -31.94433705 241.20469627 -37.53393555 244.41162109 C-45.88051593 249.22231041 -54.2134191 254.05600105 -62.53393555 258.91162109 C-63.50258545 259.4766333 -64.47123535 260.04164551 -65.46923828 260.6237793 C-70.67471672 263.66222031 -75.87449992 266.71007215 -81.0690918 269.76708984 C-82.7075708 270.72893188 -82.7075708 270.72893188 -84.37915039 271.71020508 C-86.47362258 272.93990089 -88.56648405 274.17234564 -90.6574707 275.40795898 C-92.07165283 276.23734985 -92.07165283 276.23734985 -93.5144043 277.08349609 C-94.34093506 277.57043945 -95.16746582 278.05738281 -96.01904297 278.55908203 C-98.47194175 279.88313118 -100.73780247 281.03893493 -103.40893555 281.84912109 C-106.2527704 280.65824587 -108.60905674 279.43566476 -111.22143555 277.84912109 C-112.00131836 277.39561279 -112.78120117 276.94210449 -113.5847168 276.47485352 C-115.29460124 275.47781054 -116.99964712 274.4724356 -118.70043945 273.45996094 C-121.46162168 271.81778676 -124.23570776 270.19974424 -127.0144043 268.58740234 C-131.03876558 266.2505132 -135.05781306 263.90486646 -139.07299805 261.55224609 C-145.46175546 257.8127752 -151.87009631 254.10787075 -158.28393555 250.41162109 C-159.36352539 249.78940674 -160.44311523 249.16719238 -161.55541992 248.52612305 C-163.74576075 247.26400593 -165.93619057 246.00204325 -168.12670898 244.74023438 C-173.55553497 241.61231961 -178.98212836 238.48053662 -184.40893555 235.34912109 C-186.57559137 234.0991023 -188.74225804 232.84910231 -190.90893555 231.59912109 C-197.40893555 227.84912109 -197.40893555 227.84912109 -203.90893555 224.09912109 C-204.98232178 223.4798877 -206.05570801 222.8606543 -207.16162109 222.22265625 C-209.31943357 220.97770828 -211.47714907 219.73259219 -213.63476562 218.48730469 C-219.18610147 215.28359459 -224.73930096 212.08318479 -230.2956543 208.88818359 C-235.73576163 205.75917216 -241.17085834 202.62166527 -246.60083008 199.47509766 C-248.35562403 198.45901978 -250.11161374 197.44500095 -251.86938477 196.43408203 C-270.5500268 185.67619856 -282.4429004 172.5339555 -289.28393555 151.59912109 C-291.77631448 141.34433306 -292.17656329 130.09177024 -286.89331055 120.73193359 C-284.59101367 117.81165177 -282.60347508 116.15061829 -278.96362305 115.23193359 C-278.07932617 115.14685547 -277.1950293 115.06177734 -276.28393555 114.97412109 C-275.41510742 114.87357422 -274.5462793 114.77302734 -273.65112305 114.66943359 C-264.1119806 115.19810896 -256.43640722 119.79145949 -248.40893555 124.59912109 C-246.68607589 125.61216257 -244.96320636 126.6251877 -243.23974609 127.63720703 C-241.46352746 128.68189727 -239.68997693 129.73100632 -237.91674805 130.78076172 C-232.44108918 134.01672191 -226.92262983 137.1785794 -221.40893555 140.34912109 C-219.24207356 141.59878248 -217.07540734 142.84878338 -214.90893555 144.09912109 C-213.30018555 145.02724609 -213.30018555 145.02724609 -211.65893555 145.97412109 C-180.78393555 163.78662109 -180.78393555 163.78662109 -149.90893555 181.59912109 C-148.83442139 182.21899902 -147.75990723 182.83887695 -146.65283203 183.47753906 C-144.50639095 184.7159388 -142.36006751 185.95454244 -140.21386719 187.19335938 C-135.10891549 190.13967465 -130.00272587 193.08378567 -124.89242554 196.02081299 C-122.46233003 197.41761916 -120.03289619 198.81557388 -117.60351562 200.21362305 C-115.8758914 201.20718101 -114.14730435 202.19906418 -112.41870117 203.19091797 C-110.86505859 204.08520508 -110.86505859 204.08520508 -109.2800293 204.99755859 C-108.3614917 205.52526855 -107.4429541 206.05297852 -106.49658203 206.59667969 C-104.40893555 207.84912109 -104.40893555 207.84912109 -103.40893555 208.84912109 C-103.33621813 211.20225664 -103.32522687 213.55745778 -103.34643555 215.91162109 C-103.35545898 217.20197266 -103.36448242 218.49232422 -103.3737793 219.82177734 C-103.39118164 221.3203125 -103.39118164 221.3203125 -103.40893555 222.84912109 C-107.67923027 221.55072067 -111.34507594 219.91327894 -115.20581055 217.68115234 C-116.31585449 217.04298584 -117.42589844 216.40481934 -118.56958008 215.74731445 C-119.7660915 215.05218591 -120.96254172 214.35695201 -122.15893555 213.66162109 C-123.41109383 212.9392063 -124.66354006 212.21729041 -125.91625977 211.49584961 C-128.49273266 210.01084461 -131.06735687 208.522711 -133.64038086 207.03173828 C-137.1303151 205.00951466 -140.62444181 202.99464393 -144.11987305 200.98193359 C-149.47949936 197.89499342 -154.83588057 194.80247804 -160.19116211 191.70800781 C-165.595642 188.58587504 -171.00240967 185.46770905 -176.40893555 182.34912109 C-178.57561305 181.09913988 -180.74227972 179.84913988 -182.90893555 178.59912109 C-184.51768555 177.67099609 -184.51768555 177.67099609 -186.15893555 176.72412109 C-189.40893555 174.84912109 -192.65893555 172.97412109 -195.90893555 171.09912109 C-196.98199951 170.48004883 -198.05506348 169.86097656 -199.16064453 169.22314453 C-201.32162543 167.97641854 -203.48259553 166.72967382 -205.64355469 165.48291016 C-211.14712406 162.30766226 -216.65089587 159.13276614 -222.1550293 155.95849609 C-223.26547607 155.31799316 -224.37592285 154.67749023 -225.52001953 154.01757812 C-227.71335549 152.75260682 -229.90687351 151.48795113 -232.10058594 150.22363281 C-237.12645367 147.32582826 -242.14827956 144.42159952 -247.15893555 141.49755859 C-248.04009033 140.98418945 -248.92124512 140.47082031 -249.82910156 139.94189453 C-251.45858278 138.99179841 -253.08676466 138.03946887 -254.71337891 137.08447266 C-255.42631104 136.66907227 -256.13924316 136.25367188 -256.8737793 135.82568359 C-257.48858154 135.46555176 -258.10338379 135.10541992 -258.73681641 134.734375 C-262.67557515 132.64911595 -266.02216296 132.39531703 -270.40893555 132.84912109 C-273.03909716 135.02186329 -274.88230449 136.79585897 -276.40893555 139.84912109 C-277.3057726 150.96990051 -273.6715577 160.61560211 -266.8112793 169.34912109 C-262.94026227 173.37749653 -258.55073308 175.9292406 -253.6730957 178.59667969 C-250.99442168 180.07841333 -248.34860657 181.61178455 -245.7019043 183.14990234 C-240.68468458 186.06476012 -235.65830926 188.96312206 -230.62637329 191.85249329 C-224.50843651 195.36563445 -218.39537326 198.88718857 -212.28393555 202.41162109 C-211.20587646 203.03311035 -210.12781738 203.65459961 -209.01708984 204.29492188 C-201.84193723 208.43490998 -194.68421572 212.60385554 -187.53393555 216.78662109 C-178.2679702 222.20597444 -168.95901545 227.54707498 -159.63256836 232.86129761 C-151.23940224 237.64480625 -142.87467241 242.47460441 -134.53393555 247.34912109 C-133.5473999 247.92275391 -132.56086426 248.49638672 -131.54443359 249.08740234 C-127.33059252 251.53982267 -123.13134499 254.0057252 -118.9831543 256.56787109 C-118.01128174 257.15665039 -118.01128174 257.15665039 -117.01977539 257.75732422 C-115.37741547 258.75442353 -113.74606697 259.76960262 -112.1159668 260.78662109 C-109.49009083 262.14610373 -109.49009083 262.14610373 -107.07299805 261.10205078 C-104.32005515 259.80731994 -101.70753118 258.39297292 -99.0769043 256.86474609 C-98.0437207 256.26662109 -97.01053711 255.66849609 -95.94604492 255.05224609 C-94.84067383 254.40771484 -93.73530273 253.76318359 -92.59643555 253.09912109 C-91.42927611 252.42176496 -90.2619558 251.74468597 -89.09448242 251.06787109 C-85.52982749 248.99975995 -81.96895533 246.92519844 -78.40893555 244.84912109 C-77.37075684 244.24390625 -76.33257812 243.63869141 -75.26293945 243.01513672 C-71.32530269 240.71877124 -67.38825953 238.42139762 -63.45263672 236.12158203 C-55.04074061 231.20850013 -46.60308928 226.34080681 -38.16162109 221.47875977 C-29.50183633 216.48772299 -20.86354656 211.46054016 -12.23510742 206.41552734 C-11.30891602 205.87412109 -10.38272461 205.33271484 -9.4284668 204.77490234 C-8.62513916 204.30479736 -7.82181152 203.83469238 -6.99414062 203.3503418 C-4.40893555 201.84912109 -4.40893555 201.84912109 -2.57136536 201.06033325 C-0.33573814 200.09465087 -0.33573814 200.09465087 2.59106445 197.84912109 C3.32204308 194.82535381 3.55130591 192.82781534 3.4934082 189.80224609 C3.50569962 189.03104431 3.51799103 188.25984253 3.53065491 187.465271 C3.56237758 185.0089186 3.54611393 182.55556706 3.52856445 180.09912109 C3.54167407 178.43112445 3.55791425 176.76314927 3.57739258 175.09521484 C3.61824001 171.01254356 3.61606751 166.93189874 3.59106445 162.84912109 C3.00019043 163.19467041 2.40931641 163.54021973 1.80053711 163.89624023 C-9.85282817 170.70875331 -21.51931791 177.49569397 -33.22143555 184.22412109 C-42.22361988 189.40191428 -51.17372473 194.6606468 -60.09643555 199.97412109 C-68.75490563 205.12668835 -77.45016257 210.20324015 -86.22143555 215.16162109 C-87.16398193 215.69480957 -88.10652832 216.22799805 -89.07763672 216.77734375 C-93.4819894 219.2538585 -97.88280202 221.58605433 -102.40893555 223.84912109 C-102.40893555 218.89912109 -102.40893555 213.94912109 -102.40893555 208.84912109 C-100.66612305 207.85654297 -98.92331055 206.86396484 -97.12768555 205.84130859 C-82.48423388 197.49284371 -67.88221323 189.07913526 -53.33569336 180.5625 C-44.36735877 175.31226876 -35.39105432 170.07573165 -26.40893555 164.84912109 C-25.83524231 164.51513306 -25.26154907 164.18114502 -24.67047119 163.83703613 C-21.06445906 161.73805255 -17.45652064 159.64243928 -13.84613037 157.55099487 C-12.12855552 156.55524243 -10.41252887 155.55682102 -8.6965332 154.55834961 C-7.65674316 153.95692139 -6.61695313 153.35549316 -5.5456543 152.73583984 C-4.62486084 152.20176514 -3.70406738 151.66769043 -2.75537109 151.11743164 C-0.40893555 149.84912109 -0.40893555 149.84912109 2.59106445 148.84912109 C-0.0735805 145.79353575 -3.25080077 144.07678016 -6.7565918 142.09130859 C-7.36909286 141.74278839 -7.98159393 141.39426819 -8.61265564 141.03518677 C-10.56302521 139.92691807 -12.51717567 138.82551242 -14.47143555 137.72412109 C-15.79004203 136.97585846 -17.10840421 136.22716516 -18.42651367 135.47802734 C-24.36101517 132.0580105 -24.36101517 132.0580105 -30.40893555 128.84912109 C-30.51471924 128.23335205 -30.62050293 127.61758301 -30.72949219 126.9831543 C-31.72359704 123.8608149 -33.45516595 123.27918914 -36.2800293 121.70458984 C-37.31579102 121.11806641 -38.35155273 120.53154297 -39.41870117 119.92724609 C-40.54985352 119.30333984 -41.68100586 118.67943359 -42.84643555 118.03662109 C-44.02754525 117.37262639 -45.20787275 116.70723856 -46.38745117 116.04052734 C-48.84066482 114.65537444 -51.29714955 113.27630211 -53.75610352 111.90136719 C-59.33912859 108.77311158 -64.87143465 105.55702636 -70.40893555 102.34912109 C-72.56101243 101.1064713 -74.71335766 99.86428614 -76.8659668 98.62255859 C-77.93669434 98.00477539 -79.00742188 97.38699219 -80.1105957 96.75048828 C-83.50432324 94.79413373 -86.89980685 92.84085579 -90.2956543 90.88818359 C-95.72833679 87.76339471 -101.15623687 84.63049932 -106.57885742 81.48828125 C-108.36801487 80.45201459 -110.15824309 79.41759252 -111.94995117 78.38574219 C-114.08719056 77.15282334 -116.21793109 75.90953986 -118.34643555 74.66162109 C-119.46920898 74.00806641 -120.59198242 73.35451172 -121.7487793 72.68115234 C-125.12320994 70.35720525 -127.04381559 68.43130757 -127.97143555 64.41162109 C-127.1296653 60.57688998 -124.48080066 59.02595559 -121.40893555 56.84912109 C-117.51345967 54.42449675 -113.52901111 52.16736 -109.53393555 49.91162109 C-108.37077761 49.24890685 -107.20802389 48.5854827 -106.0456543 47.92138672 C-104.25673388 46.89934402 -102.46762413 45.87765746 -100.67730713 44.85806274 C-94.89601873 41.56467312 -89.15049334 38.21123838 -83.40893555 34.84912109 C-74.01657933 29.3587421 -64.59975593 23.91193472 -55.17041016 18.48535156 C-49.61445397 15.28523488 -44.06831991 12.06966521 -38.5378418 8.82568359 C-37.43504883 8.17921875 -36.33225586 7.53275391 -35.19604492 6.86669922 C-33.09043186 5.63087907 -30.98620021 4.39270138 -28.88354492 3.15185547 C-27.94446289 2.60078125 -27.00538086 2.04970703 -26.0378418 1.48193359 C-25.21356689 0.99611816 -24.38929199 0.51030273 -23.54003906 0.00976562 C-16.21342833 -3.9804632 -7.42741326 -3.46566594 0 0 Z " fill="#986FF8" transform="translate(314.408935546875,138.15087890625)"/>
<path d="M0 0 C0.33 0 0.66 0 1 0 C1.13494246 2.6058889 1.23402299 5.20482111 1.3125 7.8125 C1.3753418 8.91948242 1.3753418 8.91948242 1.43945312 10.04882812 C1.48828125 12.20703125 1.48828125 12.20703125 1 16 C-0.23206177 16.62394653 -0.23206177 16.62394653 -1.48901367 17.26049805 C-4.38127172 18.82958813 -4.38127172 18.82958813 -4.64697266 22.4140625 C-4.67994344 23.81733261 -4.68382455 25.22148173 -4.6640625 26.625 C-4.66884613 27.36830566 -4.67362976 28.11161133 -4.67855835 28.87744141 C-4.68195797 30.44761269 -4.67275071 32.0178547 -4.65185547 33.58789062 C-4.62508362 35.9924894 -4.65159345 38.39242152 -4.68359375 40.796875 C-4.68028965 42.32292698 -4.67388341 43.84897605 -4.6640625 45.375 C-4.67418365 46.09381348 -4.68430481 46.81262695 -4.69473267 47.55322266 C-4.69646467 49.83196125 -4.69646467 49.83196125 -4 53 C-1.55697812 54.75840038 -1.55697812 54.75840038 1 56 C1.56762695 57.90112305 1.56762695 57.90112305 1.48828125 60.01171875 C1.47216797 60.76904297 1.45605469 61.52636719 1.43945312 62.30664062 C1.39755859 63.09232422 1.35566406 63.87800781 1.3125 64.6875 C1.27866211 65.88342773 1.27866211 65.88342773 1.24414062 67.10351562 C1.18526944 69.06981334 1.09558755 71.03514491 1 73 C-1.64052872 74.52338195 -4.28106464 76.04675141 -6.92163086 77.57006836 C-9.25850123 78.9183327 -11.59526859 80.26677387 -13.93188477 81.61547852 C-19.80722771 85.00641441 -25.68412695 88.39454061 -31.56640625 91.7734375 C-43.6673841 98.72983245 -55.70851062 105.77628526 -67.70092773 112.91821289 C-77.4533825 118.71061869 -87.2886881 124.35113971 -97.15380859 129.94897461 C-98.26836426 130.58198486 -99.38291992 131.21499512 -100.53125 131.8671875 C-101.51673828 132.42519043 -102.50222656 132.98319336 -103.51757812 133.55810547 C-105.38343094 134.64187088 -107.20463015 135.80308677 -109 137 C-109.09065011 138.9446193 -109.09065011 138.9446193 -108.875 141.125 C-109.1997429 144.38273831 -109.5812417 145.62062588 -112.03515625 147.84375 C-114.83100506 149.55964106 -117.65573304 151.13969682 -120.55273438 152.67578125 C-125.24946132 155.21718657 -129.84324181 157.94155059 -134.4602356 160.62420654 C-138.28449756 162.84002037 -142.1234302 165.0304953 -145.95849609 167.22753906 C-149.67549216 169.3936485 -153.33090649 171.65242897 -156.9699707 173.94677734 C-159 175 -159 175 -162 175 C-161.99410858 174.42516373 -161.98821716 173.85032745 -161.98214722 173.2580719 C-161.88619073 162.26255163 -161.93700326 151.31500872 -162.51335144 140.33190918 C-164.61542827 98.5463236 -164.61542827 98.5463236 -158.81982422 90.17529297 C-153.10161886 84.62696533 -146.24352565 82.39967528 -138.70996094 80.22900391 C-132.33167399 78.11605994 -126.89105043 74.55426591 -121.1875 71.0625 C-119.00697762 69.7980739 -116.82351351 68.53870316 -114.63671875 67.28515625 C-110.55120303 64.91517177 -106.50533584 62.50265924 -102.5 60 C-90.77719542 52.67522467 -78.66639102 45.96986837 -66.67675781 39.09423828 C-53.66325821 31.62929605 -40.72374115 24.06548286 -27.88452148 16.30419922 C-20.07442084 11.59995393 -12.1613845 7.12019308 -4.15625 2.7578125 C-1.21984381 1.31108087 -1.21984381 1.31108087 0 0 Z " fill="#6D4EEA" transform="translate(487,187)"/>
<path d="M0 0 C2.90234375 1.0390625 2.90234375 1.0390625 5.9375 2.625 C6.52047852 2.92857422 7.10345703 3.23214844 7.70410156 3.54492188 C16.88901291 8.41816943 25.79711444 13.81742969 34.75292969 19.09423828 C40.10985572 22.23831081 45.49224065 25.33792977 50.875 28.4375 C51.95281738 29.05874756 53.03063477 29.67999512 54.14111328 30.32006836 C57.42708559 32.21394062 60.71347864 34.10708072 64 36 C76.64302938 43.28193473 89.28136686 50.5703867 101.875 57.9375 C111.8823759 63.79118543 121.93562496 69.56166217 132.01928711 75.28271484 C137.17844955 78.21391132 142.31781153 81.16459457 147.375 84.26953125 C148.1594751 84.7480957 148.9439502 85.22666016 149.75219727 85.71972656 C151.15646012 86.58258498 152.55352954 87.45732337 153.94116211 88.34667969 C157.41959458 90.50847079 157.41959458 90.50847079 161.39990234 90.76000977 C164.19007647 89.94444056 166.3296817 88.85635277 168.82421875 87.3671875 C169.75685547 86.81611328 170.68949219 86.26503906 171.65039062 85.69726562 C172.65263672 85.09591797 173.65488281 84.49457031 174.6875 83.875 C176.85764035 82.59041478 179.02822863 81.30658605 181.19921875 80.0234375 C182.32118652 79.35795898 183.4431543 78.69248047 184.59912109 78.00683594 C190.04157255 74.79528167 195.52110113 71.64883038 201 68.5 C209.34849477 63.6923693 217.6822697 58.86065432 226 54 C234.18062981 49.22345503 242.36340887 44.45062986 250.56079102 39.70288086 C252.27923947 38.70677952 253.99608169 37.70790881 255.71289062 36.70898438 C256.75251953 36.10763672 257.79214844 35.50628906 258.86328125 34.88671875 C259.78407471 34.35264404 260.70486816 33.81856934 261.65356445 33.26831055 C264 32 264 32 267 31 C269.65064875 61.00870218 269.65064875 61.00870218 265.71826172 68.41357422 C262.09827516 72.00161032 257.4479008 73.41735231 252.69091797 74.98535156 C247.63412868 76.89208503 243.16220205 79.88356687 238.5625 82.6875 C236.50413949 83.89417609 234.44288122 85.09592135 232.37890625 86.29296875 C231.33234863 86.90188965 230.28579102 87.51081055 229.20751953 88.13818359 C223.81162084 91.27025266 218.40592681 94.38528147 213 97.5 C204.5324632 102.38008982 196.07163466 107.27131064 187.625 112.1875 C186.64547363 112.7546875 185.66594727 113.321875 184.65673828 113.90625 C179.80449615 116.72760382 175.00480194 119.60535134 170.265625 122.61328125 C169.35603027 123.18344971 168.44643555 123.75361816 167.50927734 124.34106445 C165.800535 125.41714455 164.10211332 126.5098596 162.41650391 127.62182617 C156.87862689 131.09167245 156.87862689 131.09167245 153.1171875 130.69921875 C148.44196788 128.15069678 143.82311976 125.54087855 139.25 122.8125 C137.08632451 121.53580222 134.92224834 120.25978329 132.7578125 118.984375 C131.64180664 118.32501953 130.52580078 117.66566406 129.37597656 116.98632812 C123.9787367 113.81074644 118.55236 110.6862344 113.125 107.5625 C110.94008624 106.30341652 108.75519051 105.04430177 106.5703125 103.78515625 C104.94270996 102.84760498 104.94270996 102.84760498 103.28222656 101.89111328 C97.85340058 98.76319852 92.42680719 95.63141552 87 92.5 C84.83334417 91.24998121 82.6666775 89.99998122 80.5 88.75 C74 85 74 85 67.5 81.25 C66.42717773 80.63108887 65.35435547 80.01217773 64.24902344 79.37451172 C62.08552524 78.12628966 59.92211357 76.87791761 57.75878906 75.62939453 C52.29434983 72.47594744 46.82836355 69.32523904 41.359375 66.1796875 C37.00494964 63.67509972 32.65504867 61.16292324 28.30859375 58.64453125 C24.12672348 56.22161459 19.93052505 53.82666132 15.72265625 51.44921875 C13.75235875 50.32074089 11.78229552 49.19185387 9.8125 48.0625 C8.92208008 47.56733887 8.03166016 47.07217773 7.11425781 46.56201172 C-3.58620227 40.37406729 -9.1016123 31.86705233 -13.3125 20.4375 C-14.49040887 14.54795564 -15.04658767 9.98490766 -12.1875 4.5625 C-8.31853321 0.03028176 -5.81136259 -0.45603482 0 0 Z " fill="#DDDEFA" transform="translate(51,270)"/>
<path d="M0 0 C5.75159893 3.42666186 11.55351651 6.76500292 17.35546875 10.10546875 C18.46180664 10.74291016 19.56814453 11.38035156 20.70800781 12.03710938 C22.97952552 13.34576504 25.25117372 14.65419424 27.52294922 15.96240234 C32.98966855 19.11128929 38.45371762 22.26480139 43.91796875 25.41796875 C46.08462186 26.66799225 48.25128854 27.91799222 50.41796875 29.16796875 C63.41796875 36.66796875 76.41796875 44.16796875 89.41796875 51.66796875 C90.49248291 52.28784668 91.56699707 52.90772461 92.67407227 53.54638672 C94.82051334 54.78478646 96.96683679 56.0233901 99.11303711 57.26220703 C104.21798881 60.20852231 109.32417842 63.15263333 114.43447876 66.08966064 C116.86457427 67.48646682 119.2940081 68.88442153 121.72338867 70.2824707 C123.4510129 71.27602867 125.17959995 72.26791184 126.90820312 73.25976562 C128.4618457 74.15405273 128.4618457 74.15405273 130.046875 75.06640625 C130.9654126 75.59411621 131.8839502 76.12182617 132.83032227 76.66552734 C134.91796875 77.91796875 134.91796875 77.91796875 135.91796875 78.91796875 C135.99068616 81.2711043 136.00167743 83.62630543 135.98046875 85.98046875 C135.97144531 87.27082031 135.96242187 88.56117188 135.953125 89.890625 C135.93572266 91.38916016 135.93572266 91.38916016 135.91796875 92.91796875 C131.64767403 91.61956833 127.98182835 89.9821266 124.12109375 87.75 C123.0110498 87.1118335 121.90100586 86.47366699 120.75732422 85.81616211 C119.56081279 85.12103357 118.36436258 84.42579966 117.16796875 83.73046875 C115.91581047 83.00805396 114.66336424 82.28613806 113.41064453 81.56469727 C110.83417163 80.07969226 108.25954742 78.59155865 105.68652344 77.10058594 C102.1965892 75.07836231 98.70246249 73.06349158 95.20703125 71.05078125 C89.84740494 67.96384107 84.49102373 64.87132569 79.13574219 61.77685547 C73.7312623 58.6547227 68.32449463 55.53655671 62.91796875 52.41796875 C60.75129125 51.16798753 58.58462458 49.91798754 56.41796875 48.66796875 C55.34546875 48.04921875 54.27296875 47.43046875 53.16796875 46.79296875 C49.91796875 44.91796875 46.66796875 43.04296875 43.41796875 41.16796875 C42.34490479 40.54889648 41.27184082 39.92982422 40.16625977 39.29199219 C38.00527887 38.04526619 35.84430877 36.79852148 33.68334961 35.55175781 C28.17978024 32.37650992 22.67600843 29.2016138 17.171875 26.02734375 C16.06142822 25.38684082 14.95098145 24.74633789 13.80688477 24.08642578 C11.6135488 22.82145448 9.42003079 21.55679879 7.22631836 20.29248047 C2.20045063 17.39467591 -2.82137526 14.49044718 -7.83203125 11.56640625 C-8.71318604 11.05303711 -9.59434082 10.53966797 -10.50219727 10.01074219 C-12.13167848 9.06064607 -13.75986037 8.10831652 -15.38647461 7.15332031 C-16.09940674 6.73791992 -16.81233887 6.32251953 -17.546875 5.89453125 C-18.16167725 5.53439941 -18.77647949 5.17426758 -19.40991211 4.80322266 C-23.34867086 2.71796361 -26.69525866 2.46416469 -31.08203125 2.91796875 C-33.71219286 5.09071095 -35.55540019 6.86470663 -37.08203125 9.91796875 C-37.9788683 21.03874817 -34.34465341 30.68444977 -27.484375 39.41796875 C-23.61335798 43.44634419 -19.22382878 45.99808825 -14.34619141 48.66552734 C-11.66751738 50.14726098 -9.02170227 51.68063221 -6.375 53.21875 C-1.35778028 56.13360777 3.66859504 59.03196972 8.70053101 61.92134094 C14.81846779 65.43448211 20.93153104 68.95603623 27.04296875 72.48046875 C28.12102783 73.10195801 29.19908691 73.72344727 30.30981445 74.36376953 C37.48496706 78.50375764 44.64268857 82.67270319 51.79296875 86.85546875 C61.05893409 92.27482209 70.36788884 97.61592264 79.69433594 102.93014526 C88.08750205 107.71365391 96.45223189 112.54345207 104.79296875 117.41796875 C105.77950439 117.99160156 106.76604004 118.56523437 107.7824707 119.15625 C111.99631177 121.60867033 116.19555931 124.07457285 120.34375 126.63671875 C121.31562256 127.22549805 121.31562256 127.22549805 122.30712891 127.82617188 C123.94948882 128.82327119 125.58083733 129.83845028 127.2109375 130.85546875 C129.83681346 132.21495139 129.83681346 132.21495139 132.25390625 131.17089844 C135.00684915 129.87616759 137.61937312 128.46182057 140.25 126.93359375 C141.28318359 126.33546875 142.31636719 125.73734375 143.38085938 125.12109375 C144.48623047 124.4765625 145.59160156 123.83203125 146.73046875 123.16796875 C147.89762818 122.49061262 149.0649485 121.81353363 150.23242188 121.13671875 C153.79707681 119.06860761 157.35794897 116.99404609 160.91796875 114.91796875 C161.95614746 114.31275391 162.99432617 113.70753906 164.06396484 113.08398438 C168.00160161 110.7876189 171.93864477 108.49024528 175.87426758 106.19042969 C184.28670628 101.27703088 192.72404131 96.40750129 201.16748047 91.54760742 C206.66035275 88.38347809 212.14453609 85.2056784 217.61328125 82 C218.69351562 81.36707031 219.77375 80.73414063 220.88671875 80.08203125 C222.92710755 78.8850705 224.96625838 77.68599584 227.00390625 76.484375 C232.22461725 73.42194676 237.46839934 70.55299584 242.91796875 67.91796875 C243.50390625 71.04296875 243.50390625 71.04296875 242.91796875 74.91796875 C240.16087524 77.52598591 236.87898872 79.14799177 233.54296875 80.91796875 C232.06739502 81.74373413 232.06739502 81.74373413 230.56201172 82.58618164 C228.44785842 83.76927841 226.32798793 84.94220463 224.203125 86.10595703 C218.76740762 89.10416559 213.41175705 92.23955319 208.04296875 95.35546875 C205.84025991 96.62442058 203.63713409 97.89264888 201.43359375 99.16015625 C195.20802897 102.74642188 188.99743529 106.35784609 182.79296875 109.98046875 C181.82174072 110.54749512 180.8505127 111.11452148 179.84985352 111.69873047 C175.79420896 114.06746639 171.7393838 116.43760037 167.68505859 118.80859375 C165.50461263 120.083625 163.32395064 121.35828689 161.14306641 122.63256836 C159.10187502 123.82523299 157.06115039 125.01869697 155.02099609 126.21313477 C154.09109863 126.75639404 153.16120117 127.29965332 152.203125 127.859375 C151.31761963 128.3845874 150.43211426 128.9097998 149.51977539 129.45092773 C146.91796875 130.91796875 146.91796875 130.91796875 144.26733398 132.13696289 C139.83489086 134.06257342 139.83489086 134.06257342 137.12475586 137.80541992 C136.80678959 139.99956565 136.77037982 142.01617776 136.85546875 144.23046875 C136.84837891 144.97103516 136.84128906 145.71160156 136.83398438 146.47460938 C136.82227708 148.28924068 136.86468184 150.10408222 136.91796875 151.91796875 C127.95345274 147.62750308 119.36813946 142.92251448 110.8359375 137.8359375 C105.08433857 134.40927564 99.28242099 131.07093458 93.48046875 127.73046875 C92.37413086 127.09302734 91.26779297 126.45558594 90.12792969 125.79882812 C87.85641198 124.49017246 85.58476378 123.18174326 83.31298828 121.87353516 C77.84626895 118.72464821 72.38221988 115.57113611 66.91796875 112.41796875 C64.75131564 111.16794525 62.58464896 109.91794528 60.41796875 108.66796875 C53.91796875 104.91796875 53.91796875 104.91796875 47.41796875 101.16796875 C46.34530762 100.54913818 45.27264648 99.93030762 44.16748047 99.29272461 C42.00239804 98.04361357 39.83735893 96.79442746 37.67236328 95.54516602 C31.1373186 91.7744187 24.60064535 88.00651488 18.06274414 84.24072266 C14.82133232 82.37182233 11.58242505 80.49863804 8.34375 78.625 C4.01852426 76.1239743 -0.31852528 73.64523596 -4.6640625 71.1796875 C-26.46885963 58.75123436 -41.84107211 46.50430667 -49.95703125 21.66796875 C-52.44941019 11.41318072 -52.84965899 0.1606179 -47.56640625 -9.19921875 C-45.02751044 -12.41960765 -42.89246289 -13.89134145 -38.89453125 -14.83203125 C-23.98296127 -15.80983912 -12.36001532 -7.37449712 0 0 Z " fill="#9870F8" transform="translate(75.08203125,268.08203125)"/>
<path d="M0 0 C4.99107254 2.16540927 9.56668693 4.9144196 14.234375 7.69921875 C16.39805049 8.97591653 18.56212666 10.25193546 20.7265625 11.52734375 C21.84256836 12.18669922 22.95857422 12.84605469 24.10839844 13.52539062 C29.5056383 16.70097231 34.932015 19.82548435 40.359375 22.94921875 C42.54428876 24.20830223 44.72918449 25.46741698 46.9140625 26.7265625 C47.99913086 27.35159668 49.08419922 27.97663086 50.20214844 28.62060547 C55.63097445 31.74852025 61.05754749 34.88033841 66.484375 38.01171875 C68.64452857 39.25781714 70.80468483 40.50391089 72.96484375 41.75 C77.36396575 44.28787868 81.76231821 46.82708458 86.16015625 49.3671875 C99.58144115 57.11749311 113.01938058 64.8375832 126.484375 72.51171875 C126.484375 73.17171875 126.484375 73.83171875 126.484375 74.51171875 C125.23563599 75.22303955 125.23563599 75.22303955 123.96166992 75.94873047 C120.86924616 77.71065307 117.77764094 79.47400762 114.6862793 81.23779297 C113.34893676 82.00055312 112.01137341 82.76292625 110.67358398 83.52490234 C108.74925296 84.62104931 106.82572379 85.71859168 104.90234375 86.81640625 C104.0068708 87.3258931 104.0068708 87.3258931 103.0933075 87.84567261 C100.49544235 89.33006693 97.97559638 90.8509045 95.484375 92.51171875 C91.04243651 92.20529951 87.92547808 90.90764012 84.125 88.66015625 C83.10535156 88.06396484 82.08570313 87.46777344 81.03515625 86.85351562 C79.94589844 86.20447266 78.85664063 85.55542969 77.734375 84.88671875 C76.57740148 84.20669697 75.41983787 83.52767828 74.26171875 82.84960938 C71.85772352 81.44104551 69.45631727 80.02821234 67.05664062 78.61230469 C61.5560262 75.37154897 56.01834091 72.19505552 50.484375 69.01171875 C48.31753466 67.76201983 46.1508685 66.51201886 43.984375 65.26171875 C42.911875 64.64296875 41.839375 64.02421875 40.734375 63.38671875 C37.484375 61.51171875 34.234375 59.63671875 30.984375 57.76171875 C29.9113916 57.14272705 28.8384082 56.52373535 27.73291016 55.88598633 C25.57099616 54.63865327 23.40921183 53.39109545 21.24755859 52.14331055 C15.75922915 48.97563043 10.26854967 45.81215114 4.7734375 42.65625 C-8.40835956 35.07974268 -21.51660026 27.39809105 -34.515625 19.51171875 C-31.9439469 16.60361639 -28.99919759 14.91882183 -25.640625 13.0078125 C-25.0748877 12.68386002 -24.50915039 12.35990753 -23.92626953 12.02613831 C-22.12527182 10.99595209 -20.32063199 9.97236105 -18.515625 8.94921875 C-16.71138436 7.92121558 -14.90792522 6.89186165 -13.10498047 5.86158752 C-11.46980039 4.92801601 -9.83260618 3.99797495 -8.1953125 3.06811523 C-2.18324928 -0.42376733 -2.18324928 -0.42376733 0 0 Z " fill="#986FF9" transform="translate(159.515625,215.48828125)"/>
<path d="M0 0 C0.66 0 1.32 0 2 0 C4.65064875 30.00870218 4.65064875 30.00870218 0.71826172 37.41357422 C-2.90172484 41.00161032 -7.5520992 42.41735231 -12.30908203 43.98535156 C-17.36587132 45.89208503 -21.83779795 48.88356687 -26.4375 51.6875 C-28.49586051 52.89417609 -30.55711878 54.09592135 -32.62109375 55.29296875 C-33.66765137 55.90188965 -34.71420898 56.51081055 -35.79248047 57.13818359 C-42.27678741 60.9020232 -48.77478363 64.64213096 -55.27148438 68.38452148 C-62.67326172 72.65073142 -70.06014871 76.94170274 -77.4375 81.25 C-78.90630615 82.10682373 -78.90630615 82.10682373 -80.40478516 82.98095703 C-85.15791628 85.75408183 -89.90771391 88.53266648 -94.65234375 91.3203125 C-96.39315969 92.33866044 -98.13404158 93.35689566 -99.875 94.375 C-100.67220459 94.84583008 -101.46940918 95.31666016 -102.29077148 95.80175781 C-107.77338552 99 -107.77338552 99 -110 99 C-110 85.47 -110 71.94 -110 58 C-108.68 58.66 -107.36 59.32 -106 60 C-102.17047314 59.67084932 -99.44577487 58.31927754 -96.17578125 56.3671875 C-95.24314453 55.81611328 -94.31050781 55.26503906 -93.34960938 54.69726562 C-91.84624023 53.79524414 -91.84624023 53.79524414 -90.3125 52.875 C-88.14235965 51.59041478 -85.97177137 50.30658605 -83.80078125 49.0234375 C-82.67881348 48.35795898 -81.5568457 47.69248047 -80.40087891 47.00683594 C-74.95842745 43.79528167 -69.47889887 40.64883038 -64 37.5 C-54.67757285 32.13151284 -45.3760724 26.72851277 -36.08959961 21.2980957 C-30.6543521 18.12260283 -25.21015361 14.9634456 -19.75390625 11.82421875 C-19.15146088 11.47747101 -18.5490155 11.13072327 -17.92831421 10.77346802 C-14.99061073 9.08303604 -12.05174774 7.39469183 -9.11132812 5.70898438 C-8.06525391 5.10763672 -7.01917969 4.50628906 -5.94140625 3.88671875 C-5.01013916 3.35264404 -4.07887207 2.81856934 -3.11938477 2.26831055 C-1.08882777 1.1700457 -1.08882777 1.1700457 0 0 Z " fill="#F2F0FB" transform="translate(316,301)"/>
<path d="M0 0 C0.33 11.55 0.66 23.1 1 35 C-2.3 36.65 -5.6 38.3 -9 40 C-10.80721773 40.99640146 -12.60446822 42.01152956 -14.3828125 43.05859375 C-15.3094873 43.60185303 -16.23616211 44.1451123 -17.19091797 44.70483398 C-18.15916504 45.27661377 -19.12741211 45.84839355 -20.125 46.4375 C-22.2551729 47.68756037 -24.38538225 48.93755865 -26.515625 50.1875 C-27.59392578 50.82171875 -28.67222656 51.4559375 -29.78320312 52.109375 C-34.80774206 55.06247378 -39.84096288 58.00063056 -44.875 60.9375 C-45.85581543 61.51024658 -46.83663086 62.08299316 -47.84716797 62.6730957 C-56.38284639 67.65258826 -64.94854232 72.57929632 -73.51708984 77.50195312 C-81.42401804 82.05722698 -89.26224327 86.71760065 -97.03613281 91.49658203 C-97.79764648 91.9604834 -98.55916016 92.42438477 -99.34375 92.90234375 C-100.00568359 93.30960693 -100.66761719 93.71687012 -101.34960938 94.13647461 C-103 95 -103 95 -105 95 C-109.23889948 65.72623263 -109.23889948 65.72623263 -102.80126953 57.02978516 C-96.60357979 51.87199779 -89.24928211 48.7878594 -81.87060547 45.70263672 C-76.15736303 43.26788542 -70.89149155 40.06773135 -65.55957031 36.90432739 C-62.65470909 35.19286037 -59.71838223 33.53720586 -56.78515625 31.875 C-50.41773474 28.24628355 -44.07778844 24.57232185 -37.75 20.875 C-36.7911792 20.31522461 -35.8323584 19.75544922 -34.84448242 19.17871094 C-29.63714023 16.13543053 -24.43735904 13.07963425 -19.2421875 10.015625 C-18.13520508 9.36480957 -17.02822266 8.71399414 -15.88769531 8.04345703 C-13.75205762 6.78770718 -11.61850542 5.52840214 -9.48730469 4.26513672 C-8.53500977 3.70584473 -7.58271484 3.14655273 -6.6015625 2.5703125 C-5.33820068 1.82418701 -5.33820068 1.82418701 -4.04931641 1.06298828 C-2 0 -2 0 0 0 Z " fill="#F2F0FB" transform="translate(482,206)"/>
<path d="M0 0 C1.85552346 0.96465945 3.68383065 1.98311977 5.484375 3.046875 C6.50273437 3.645 7.52109375 4.243125 8.5703125 4.859375 C9.61960937 5.48328125 10.66890625 6.1071875 11.75 6.75 C12.78382813 7.3584375 13.81765625 7.966875 14.8828125 8.59375 C17.92668383 10.38787063 20.96461765 12.19155956 24 14 C24.95326172 14.56783203 25.90652344 15.13566406 26.88867188 15.72070312 C30.302359 17.76098236 33.69040196 19.79360131 37 22 C36.16698364 22.4650293 36.16698364 22.4650293 35.31713867 22.93945312 C25.66427952 28.33806042 16.03115738 33.76176579 6.53125 39.42578125 C5.91687576 39.79190521 5.30250153 40.15802917 4.66950989 40.5352478 C1.6460153 42.33928299 -1.37314095 44.15022246 -4.38793945 45.96875 C-5.48323975 46.62488281 -6.57854004 47.28101563 -7.70703125 47.95703125 C-8.6813208 48.54460205 -9.65561035 49.13217285 -10.65942383 49.73754883 C-13 51 -13 51 -15 51 C-15 55.95 -15 60.9 -15 66 C-15.33 66 -15.66 66 -16 66 C-15.9162915 65.01652588 -15.83258301 64.03305176 -15.74633789 63.01977539 C-15.605248 56.90152266 -15.605248 56.90152266 -17 51 C-20.87376733 46.98212704 -25.46771325 44.79567346 -30.4375 42.4375 C-31.69998487 41.79109087 -32.95979129 41.13942246 -34.21679688 40.48242188 C-36.65653378 39.2145337 -39.10549189 37.96892717 -41.56591797 36.74169922 C-44.72760658 35.13815262 -47.83434009 33.48483694 -50.91015625 31.72265625 C-51.70687744 31.26769775 -52.50359863 30.81273926 -53.32446289 30.34399414 C-53.87739014 29.90047607 -54.43031738 29.45695801 -55 29 C-55 28.01 -55 27.02 -55 26 C-54.01386719 25.46375 -53.02773438 24.9275 -52.01171875 24.375 C-40.87821925 18.27459817 -29.93808185 11.87075652 -19.04174805 5.359375 C-17.92711182 4.69421875 -16.81247559 4.0290625 -15.6640625 3.34375 C-14.66842285 2.74755859 -13.6727832 2.15136719 -12.64697266 1.53710938 C-11.77347168 1.02986328 -10.8999707 0.52261719 -10 0 C-9.34692871 -0.44021484 -8.69385742 -0.88042969 -8.02099609 -1.33398438 C-4.88073685 -2.36885116 -2.97992455 -1.26743239 0 0 Z " fill="#7F5BF2" transform="translate(341,230)"/>
<path d="M0 0 C0 5.28 0 10.56 0 16 C-1.381875 16.77601563 -2.76375 17.55203125 -4.1875 18.3515625 C-15.44808999 24.68831281 -26.65924947 31.1006159 -37.80932617 37.62988281 C-45.12445008 41.91219366 -52.46366635 46.15084549 -59.8125 50.375 C-70.33142757 56.42340329 -80.78178515 62.58120479 -91.19458008 68.81005859 C-92.79209106 69.76259521 -92.79209106 69.76259521 -94.421875 70.734375 C-95.35612305 71.29350586 -96.29037109 71.85263672 -97.25292969 72.42871094 C-100.11834204 74.06769013 -103.0347675 75.55069484 -106 77 C-107.53108226 71.54197527 -108.50235645 66.30466107 -106 61 C-100.31517182 55.45134395 -92.50856196 52.24356242 -85.46826172 48.75634766 C-79.90845188 45.94082802 -74.56263103 42.77472171 -69.1875 39.625 C-67.00178733 38.36504325 -64.81558471 37.1059361 -62.62890625 35.84765625 C-55.92922183 31.97222256 -49.2751575 28.02213576 -42.625 24.0625 C-32.92284336 18.28956345 -23.17334994 12.60773268 -13.375 7 C-12.75506165 6.64430939 -12.13512329 6.28861877 -11.49639893 5.92214966 C-9.75682869 4.92479102 -8.01518577 3.9310501 -6.2734375 2.9375 C-5.27747559 2.36902344 -4.28151367 1.80054688 -3.25537109 1.21484375 C-1 0 -1 0 0 0 Z " fill="#6D4EEA" transform="translate(318,343)"/>
<path d="M0 0 C0.13526139 2.24834496 0.23210804 4.49902514 0.3125 6.75 C0.37050781 8.00296875 0.42851562 9.2559375 0.48828125 10.546875 C0 14 0 14 -2.19726562 16.01708984 C-4.8507849 17.89443162 -7.5082745 19.57175309 -10.33203125 21.1796875 C-11.36537598 21.77144775 -12.3987207 22.36320801 -13.46337891 22.97290039 C-15.12119385 23.9144397 -15.12119385 23.9144397 -16.8125 24.875 C-18.57272722 25.88134406 -20.33202743 26.88929624 -22.09130859 27.89729309 C-23.29285535 28.58559075 -24.49468057 29.27340253 -25.69677734 29.96073914 C-31.52567474 33.29466338 -37.32785286 36.67369465 -43.125 40.0625 C-44.10355957 40.63387695 -45.08211914 41.20525391 -46.09033203 41.79394531 C-50.07424964 44.12046407 -54.05723299 46.44857596 -58.03955078 48.77783203 C-68.88013831 55.11809582 -79.72827056 61.44407228 -90.625 67.6875 C-91.48375732 68.18072754 -92.34251465 68.67395508 -93.22729492 69.18212891 C-94.03142822 69.64151855 -94.83556152 70.1009082 -95.6640625 70.57421875 C-96.70747803 71.17109497 -96.70747803 71.17109497 -97.77197266 71.7800293 C-100.47557197 73.26040249 -103.24305182 74.62152591 -106 76 C-106 71.05 -106 66.1 -106 61 C-104.2571875 60.00742187 -102.514375 59.01484375 -100.71875 57.9921875 C-86.07529833 49.64372262 -71.47327768 41.23001416 -56.92675781 32.71337891 C-51.9949193 29.82618816 -47.06039639 26.94360385 -42.125 24.0625 C-41.15506104 23.49611816 -40.18512207 22.92973633 -39.18579102 22.34619141 C-33.73752724 19.1682987 -28.28150647 16.00428976 -22.81640625 12.85546875 C-22.21918762 12.51133438 -21.62196899 12.16720001 -21.00665283 11.81263733 C-18.10132207 10.13901086 -15.19501527 8.46712011 -12.28759766 6.79711914 C-11.24780762 6.19891357 -10.20801758 5.60070801 -9.13671875 4.984375 C-7.75552856 4.19111816 -7.75552856 4.19111816 -6.34643555 3.38183594 C-0.60388693 0 -0.60388693 0 0 0 Z " fill="#6E50EA" transform="translate(318,286)"/>
<path d="M0 0 C0.5859375 3.125 0.5859375 3.125 0 7 C-2.75709351 9.60801716 -6.03898003 11.23002302 -9.375 13 C-10.35871582 13.55051025 -11.34243164 14.10102051 -12.35595703 14.66821289 C-14.47011033 15.85130966 -16.58998082 17.02423588 -18.71484375 18.18798828 C-24.15056113 21.18619684 -29.5062117 24.32158444 -34.875 27.4375 C-37.07770884 28.70645183 -39.28083466 29.97468013 -41.484375 31.2421875 C-47.70993978 34.82845313 -53.92053346 38.43987734 -60.125 42.0625 C-61.09622803 42.62952637 -62.06745605 43.19655273 -63.06811523 43.78076172 C-67.12375979 46.14949764 -71.17858495 48.51963162 -75.23291016 50.890625 C-77.41335612 52.16565625 -79.59401811 53.44031814 -81.77490234 54.71459961 C-83.81609373 55.90726424 -85.85681836 57.10072822 -87.89697266 58.29516602 C-89.73273179 59.36764253 -91.5714672 60.43504578 -93.41357422 61.49658203 C-95.12572376 62.49180734 -96.82571847 63.50827024 -98.51220703 64.54638672 C-99.68372314 65.24852295 -99.68372314 65.24852295 -100.87890625 65.96484375 C-101.55638916 66.38241943 -102.23387207 66.79999512 -102.93188477 67.23022461 C-105.66252918 68.2466007 -107.253347 67.87268618 -110 67 C-110.66 66.34 -111.32 65.68 -112 65 C-105.21889423 60.32215919 -98.21527698 56.14368844 -91.0625 52.0625 C-89.33476359 51.07112539 -87.60702982 50.07974615 -85.87945557 49.08808899 C-84.09776381 48.065892 -82.31531765 47.04502131 -80.53271484 46.02441406 C-74.97347707 42.84035353 -69.42424296 39.63893802 -63.875 36.4375 C-62.79871338 35.81689697 -61.72242676 35.19629395 -60.61352539 34.55688477 C-53.39660317 30.39237817 -46.1943415 26.20337547 -39 22 C-30.78446113 17.20214735 -22.56403701 12.41285995 -14.3293457 7.64794922 C-12.58916988 6.64044104 -10.85023885 5.63078385 -9.11132812 4.62109375 C-8.06525391 4.01652344 -7.01917969 3.41195313 -5.94140625 2.7890625 C-5.01013916 2.24975098 -4.07887207 1.71043945 -3.11938477 1.15478516 C-1 0 -1 0 0 0 Z " fill="#B18BFA" transform="translate(318,336)"/>
<path d="M0 0 C2.9375 0.75 2.9375 0.75 4.9375 2.75 C-5.60113276 9.42731185 -16.42395206 15.60387076 -27.23828125 21.8203125 C-33.5284879 25.4372923 -39.79891035 29.08716736 -46.0625 32.75 C-55.54376685 38.29388453 -65.05666755 43.78107474 -74.58007812 49.25219727 C-82.48680938 53.80744901 -90.32489755 58.46769549 -98.09863281 63.24658203 C-98.86014648 63.7104834 -99.62166016 64.17438477 -100.40625 64.65234375 C-101.06818359 65.05960693 -101.73011719 65.46687012 -102.41210938 65.88647461 C-104.0625 66.75 -104.0625 66.75 -106.0625 66.75 C-106.0625 64.44 -106.0625 62.13 -106.0625 59.75 C-105.06959961 59.17838135 -105.06959961 59.17838135 -104.05664062 58.59521484 C-88.02834348 49.36487924 -72.03104814 40.08343193 -56.0625 30.75 C-52.10464526 28.43667962 -48.1463915 26.12404572 -44.1875 23.8125 C-43.21772217 23.24619873 -42.24794434 22.67989746 -41.2487793 22.09643555 C-35.80032631 18.91850705 -30.3441638 15.75438041 -24.87890625 12.60546875 C-24.28168762 12.26133438 -23.68446899 11.91720001 -23.06915283 11.56263733 C-20.16382207 9.88901086 -17.25751527 8.21712011 -14.35009766 6.54711914 C-13.31030762 5.94891357 -12.27051758 5.35070801 -11.19921875 4.734375 C-9.81802856 3.94111816 -9.81802856 3.94111816 -8.40893555 3.13183594 C-2.7146103 -0.22160084 -2.7146103 -0.22160084 0 0 Z " fill="#B18BFA" transform="translate(483.0625,241.25)"/>
<path d="M0 0 C3.125 2.125 3.125 2.125 5.125 4.125 C5.625 7.4375 5.625 7.4375 5.125 11.125 C1.01635782 15.42474181 -3.01404561 17.80996533 -8.92578125 18.4609375 C-17.11798961 18.55904778 -22.71215621 17.78325666 -28.9375 12.3125 C-30.4618243 8.75574329 -30.09104689 6.77314066 -28.875 3.125 C-22.63760435 -4.38993451 -8.15825561 -3.95959292 0 0 Z " fill="#FCFBFE" transform="translate(342.875,246.875)"/>
<path d="M0 0 C1.00561897 1.98465771 1.98602294 3.96874997 2.89453125 6 C6.25493938 13.32139985 10.66066795 16.12183057 18 19 C17.42378906 19.28230469 16.84757812 19.56460938 16.25390625 19.85546875 C8.12203469 23.85588838 8.12203469 23.85588838 3 31 C2.2218661 33.65655903 1.59653313 36.29265732 1 39 C0.67 39 0.34 39 0 39 C-0.14695312 38.43152344 -0.29390625 37.86304688 -0.4453125 37.27734375 C-2.31339832 30.84640464 -4.90240087 25.31209911 -10.9453125 21.90234375 C-12.59602129 21.18391786 -14.29555259 20.57951212 -16 20 C-13.72062639 18.24663569 -11.46652272 16.67769081 -9 15.1875 C-3.47301165 11.15740433 -1.53838188 6.40992451 0 0 Z " fill="#FBF9FE" transform="translate(105,225)"/>
<path d="M0 0 C0.99 0.495 0.99 0.495 2 1 C1.48155049 5.54001364 1.48155049 5.54001364 -0.61376953 7.54150391 C-1.6750708 8.18998291 -1.6750708 8.18998291 -2.7578125 8.8515625 C-3.57540039 9.35719727 -4.39298828 9.86283203 -5.23535156 10.38378906 C-6.14768555 10.91713867 -7.06001953 11.45048828 -8 12 C-9.44971191 12.85029785 -9.44971191 12.85029785 -10.92871094 13.71777344 C-13.64538866 15.2870134 -16.37122068 16.83833694 -19.1048584 18.37780762 C-30.87617227 25.00906498 -42.53307425 31.81746111 -54.11669922 38.77099609 C-59.65370146 42.08061528 -65.17958851 45.21632494 -71 48 C-71 47.01 -71 46.02 -71 45 C-68.84448242 43.2824707 -68.84448242 43.2824707 -65.85546875 41.42578125 C-64.25155273 40.42514648 -64.25155273 40.42514648 -62.61523438 39.40429688 C-62.05280029 39.06132568 -61.49036621 38.71835449 -60.91088867 38.36499023 C-59.19703023 37.31832021 -57.49556218 36.25352829 -55.79492188 35.18554688 C-47.40431396 30 -47.40431396 30 -44 30 C-44 29.34 -44 28.68 -44 28 C-42.43041992 26.7824707 -42.43041992 26.7824707 -40.23046875 25.42578125 C-39.42867188 24.92594727 -38.626875 24.42611328 -37.80078125 23.91113281 C-36.50720703 23.11980957 -36.50720703 23.11980957 -35.1875 22.3125 C-33.44119739 21.23080586 -31.69510269 20.148776 -29.94921875 19.06640625 C-29.0989209 18.54191895 -28.24862305 18.01743164 -27.37255859 17.47705078 C-25.36267033 16.22578262 -23.37253741 14.95313228 -21.39453125 13.65234375 C-20.43933594 13.02457031 -19.48414063 12.39679688 -18.5 11.75 C-17.6853125 11.20859375 -16.870625 10.6671875 -16.03125 10.109375 C-14 9 -14 9 -11 9 C-11 8.34 -11 7.68 -11 7 C-8.09451118 4.95830515 -6.59857954 4 -3 4 C-3 3.34 -3 2.68 -3 2 C-2.01 1.34 -1.02 0.68 0 0 Z " fill="#7558EB" transform="translate(316,295)"/>
<path d="M0 0 C0 0.99 0 1.98 0 3 C-1.74975586 4.45117188 -1.74975586 4.45117188 -4.21484375 5.96875 C-5.57464355 6.8184436 -5.57464355 6.8184436 -6.96191406 7.68530273 C-7.94385742 8.28415283 -8.92580078 8.88300293 -9.9375 9.5 C-11.95239459 10.75038134 -13.96671063 12.00169543 -15.98046875 13.25390625 C-16.99157715 13.8792627 -18.00268555 14.50461914 -19.04443359 15.14892578 C-21.78151188 16.86316067 -24.48459503 18.61716392 -27.17578125 20.40234375 C-27.95252197 20.91667969 -28.7292627 21.43101562 -29.52954102 21.9609375 C-30.98804884 22.93081714 -32.44309393 23.90592828 -33.89428711 24.88671875 C-35.55798404 25.98468845 -37.27446606 27.00202328 -39 28 C-39.66 27.67 -40.32 27.34 -41 27 C-38.58744287 21.67735451 -35.02835153 19.98988194 -30.0625 17.4375 C-28.45006259 16.57751118 -26.83945598 15.71408298 -25.23046875 14.84765625 C-24.38403809 14.39277832 -23.53760742 13.93790039 -22.66552734 13.46923828 C-17.99514188 10.8949225 -13.43744392 8.1348043 -8.875 5.375 C-7.99207275 4.84189209 -7.10914551 4.30878418 -6.19946289 3.75952148 C-4.13144247 2.50884684 -2.06488586 1.25584082 0 0 Z " fill="#795CEC" transform="translate(463,201)"/>
<path d="M0 0 C2 1 2 1 3 3 C-3.93 6.96 -10.86 10.92 -18 15 C-18.66 14.34 -19.32 13.68 -20 13 C-19.50072998 12.67725098 -19.00145996 12.35450195 -18.48706055 12.02197266 C-16.22039898 10.55653366 -13.95394734 9.09077031 -11.6875 7.625 C-10.90181641 7.11710937 -10.11613281 6.60921875 -9.30664062 6.0859375 C-8.54931641 5.59609375 -7.79199219 5.10625 -7.01171875 4.6015625 C-6.31522217 4.15119629 -5.61872559 3.70083008 -4.90112305 3.23681641 C-3.2600192 2.16916107 -1.62901545 1.0860103 0 0 Z " fill="#7D62EC" transform="translate(264,328)"/>
</svg>
